<svg viewBox="0 0 260 43" xmlns="http://www.w3.org/2000/svg" data-logo="logo">
        <g transform="translate(0, 1) rotate(0)" id="logogram" style="opacity: 1;"><path fill="#4845D2" d="M0.452637 20.81C0.452637 9.76427 9.40694 0.809967 20.4526 0.809967H46.7026C57.7484 0.809967 66.7026 9.76427 66.7026 20.81V40.81H20.4526C9.40694 40.81 0.452637 31.8557 0.452637 20.81Z"></path><path fill="#A5B4FC" d="M46.7026 8.30997H20.4526C13.5491 8.30997 7.95264 13.9064 7.95264 20.81C7.95264 27.7135 13.5491 33.31 20.4526 33.31H46.7026C53.6062 33.31 59.2026 27.7135 59.2026 20.81C59.2026 13.9064 53.6062 8.30997 46.7026 8.30997Z"></path><path fill="black" d="M20.4526 27.06C23.9044 27.06 26.7026 24.2617 26.7026 20.81C26.7026 17.3582 23.9044 14.56 20.4526 14.56C17.0009 14.56 14.2026 17.3582 14.2026 20.81C14.2026 24.2617 17.0009 27.06 20.4526 27.06Z"></path><path fill="white" d="M17.9526 19.56C18.643 19.56 19.2026 19.0003 19.2026 18.31C19.2026 17.6196 18.643 17.06 17.9526 17.06C17.2623 17.06 16.7026 17.6196 16.7026 18.31C16.7026 19.0003 17.2623 19.56 17.9526 19.56Z"></path><path fill="black" d="M47.9526 27.06C51.4044 27.06 54.2026 24.2617 54.2026 20.81C54.2026 17.3582 51.4044 14.56 47.9526 14.56C44.5009 14.56 41.7026 17.3582 41.7026 20.81C41.7026 24.2617 44.5009 27.06 47.9526 27.06Z"></path><path fill="white" d="M45.4526 19.56C46.143 19.56 46.7026 19.0003 46.7026 18.31C46.7026 17.6196 46.143 17.06 45.4526 17.06C44.7623 17.06 44.2026 17.6196 44.2026 18.31C44.2026 19.0003 44.7623 19.56 45.4526 19.56Z"></path></g>
        <g transform="translate(73, 9)" id="logotype" style="opacity: 1;"><path d="M12.51 25L6.35 25L16.57 0.01L23.96 0.01L34.14 25L27.39 25L19.34 3.93L20.63 3.93L12.51 25ZM27.00 19.86L13.11 19.86L13.11 15.20L27.00 15.20L27.00 19.86ZM42.99 25.49L42.99 25.49Q41.28 25.49 39.97 24.95Q38.66 24.41 37.80 23.41Q36.94 22.41 36.52 20.99Q36.10 19.57 36.10 17.82L36.10 17.82L36.10 7.01L42.12 7.01L42.12 16.77Q42.12 18.04 42.50 18.95Q42.89 19.86 43.66 20.34Q44.43 20.84 45.52 20.84L45.52 20.84Q46.84 20.84 47.74 20.26Q48.63 19.68 49.10 18.66Q49.58 17.65 49.58 16.35L49.58 16.35L49.58 7.01L55.59 7.01L55.59 25L49.58 25L49.58 20.38L50.13 21.04Q49.23 23.29 47.34 24.39Q45.45 25.49 42.99 25.49ZM72.64 25L67.46 25Q64.77 25 63.19 23.51Q61.62 22.02 61.62 19.43L61.62 19.43L61.62 2.14L67.60 2.14L67.60 18.14Q67.60 19.36 68.25 20.06Q68.89 20.77 70.12 20.77L70.12 20.77L72.64 20.77L72.64 25ZM62.17 11.24L57.98 11.24L57.98 7.01L62.17 7.01L62.17 11.24ZM72.64 11.24L67.04 11.24L67.04 7.01L72.64 7.01L72.64 11.24ZM84.82 25.49L84.82 25.49Q81.53 25.49 79.20 24.30Q76.88 23.11 75.63 20.96Q74.39 18.80 74.39 16.00L74.39 16.00Q74.39 14.32 74.83 12.87Q75.27 11.42 76.14 10.25Q77.02 9.07 78.29 8.23Q79.57 7.39 81.20 6.96Q82.83 6.52 84.82 6.52L84.82 6.52Q88.14 6.52 90.47 7.73Q92.80 8.93 94.03 11.07Q95.25 13.20 95.25 16.00L95.25 16.00Q95.25 17.68 94.80 19.16Q94.34 20.63 93.48 21.78Q92.63 22.93 91.37 23.77Q90.11 24.61 88.44 25.05Q86.78 25.49 84.82 25.49ZM84.82 21.15L84.82 21.15Q85.69 21.15 86.38 20.92Q87.06 20.70 87.59 20.24Q88.11 19.79 88.46 19.17Q88.81 18.56 88.98 17.74Q89.16 16.91 89.16 16.00L89.16 16.00Q89.16 14.39 88.67 13.24Q88.18 12.08 87.22 11.47Q86.25 10.86 84.82 10.86L84.82 10.86Q83.94 10.86 83.25 11.09Q82.55 11.31 82.06 11.75Q81.56 12.19 81.20 12.82Q80.83 13.45 80.66 14.24Q80.48 15.02 80.48 16.00L80.48 16.00Q80.48 17.58 80.97 18.73Q81.46 19.89 82.42 20.52Q83.39 21.15 84.82 21.15ZM104.11 25L98.40 25L98.40 0.01L107.22 0.01L114.08 20.13L111.91 20.17L119.05 0.01L127.48 0.01L127.48 25L121.25 25L121.25 4.49L122.52 4.70L115.13 25L110.13 25L103.06 5.22L104.11 5.05L104.11 25ZM137.00 25.49L137.00 25.49Q134.03 25.49 132.35 24.07Q130.67 22.66 130.67 20.27L130.67 20.27Q130.67 18.66 131.44 17.49Q132.21 16.32 133.78 15.55Q135.36 14.78 137.71 14.46L137.71 14.46L142.15 13.90Q142.92 13.76 143.31 13.40Q143.69 13.03 143.69 12.40L143.69 12.40L143.69 12.36Q143.69 11.73 143.34 11.30Q142.99 10.86 142.33 10.65Q141.66 10.44 140.68 10.44L140.68 10.44Q139.28 10.44 138.41 10.81Q137.53 11.17 137.36 12.08L137.36 12.08L131.44 12.08Q131.75 10.16 133.00 8.93Q134.24 7.71 136.24 7.11Q138.23 6.52 140.82 6.52L140.82 6.52Q143.76 6.52 145.74 7.27Q147.72 8.02 148.68 9.55Q149.64 11.07 149.64 13.41L149.64 13.41L149.64 25L144.00 25L144.00 20.38L144.60 21.04Q143.94 22.59 142.83 23.55Q141.73 24.51 140.26 25Q138.79 25.49 137.00 25.49ZM139.11 21.36L139.11 21.36Q140.16 21.36 141.01 20.99Q141.87 20.63 142.48 20.01Q143.09 19.40 143.39 18.63Q143.69 17.86 143.69 17.02L143.69 17.02L143.69 14.74L144.63 15.90Q144.22 16.32 143.60 16.53Q142.99 16.74 141.77 16.98L141.77 16.98L138.83 17.51Q137.78 17.75 137.23 18.24Q136.69 18.73 136.69 19.47L136.69 19.47Q136.69 20.38 137.36 20.87Q138.02 21.36 139.11 21.36ZM159.16 25L153.10 25L153.10 7.01L159.16 7.01L159.16 25ZM159.16 4.63L153.07 4.63L153.07 0.01L159.16 0.01L159.16 4.63ZM169.00 25L162.97 25L162.97 0.01L169.00 0.01L169.00 25ZM178.69 25L172.67 25L172.67 7.01L178.69 7.01L178.69 12.96L178.27 12.75Q178.72 10.68 179.55 9.41Q180.37 8.13 181.63 7.57Q182.89 7.01 184.67 7.01L184.67 7.01L186.04 7.01L186.04 12.50L183.94 12.50Q182.29 12.50 181.12 13.20Q179.95 13.90 179.32 15.22Q178.69 16.53 178.69 18.38L178.69 18.38L178.69 25Z" fill="#fffff"></path></g>
        
      </svg>